<svg width="222" height="78" viewBox="0 0 222 78" fill="none" xmlns="http://www.w3.org/2000/svg">
<rect width="222" height="78" rx="2" fill="black"/>
<path fill-rule="evenodd" clip-rule="evenodd" d="M70.0733 9.34204C69.6514 9.34204 69.2513 9.43521 68.8951 9.56125C69.6623 10.0764 70.0898 10.756 70.3035 11.5342C70.32 11.6438 70.3474 11.715 70.3583 11.8191C70.3693 11.9233 70.3912 12 70.3912 12.0932C70.446 13.4249 70.0459 13.5893 69.7555 14.3785C69.5495 14.8552 69.4614 15.3745 69.4986 15.8925C69.5358 16.4105 69.6972 16.9119 69.9692 17.3543C70.0176 17.4717 70.0782 17.5838 70.1501 17.6886C69.5746 13.8633 72.7642 13.2879 73.356 12.0986C73.3999 11.0026 72.534 10.3614 71.8599 9.87363C71.3251 9.53642 70.7056 9.35779 70.0733 9.35848V9.34204ZM74.8796 10.2024C74.8248 10.5477 74.8631 10.46 74.8467 10.6409L74.8138 11.0355L74.7042 11.3972C74.6708 11.5199 74.6306 11.6406 74.5836 11.7589L74.4192 12.1041C74.3754 12.1589 74.3425 12.2247 74.2987 12.285L74.2055 12.422L73.9863 12.7234C73.8931 12.8166 73.8219 12.9207 73.7123 12.9974C73.6027 13.0741 73.5314 13.1783 73.4273 13.255C73.1094 13.4961 72.7477 13.677 72.4134 13.9126C72.3038 13.9893 72.1942 14.0496 72.112 14.1318C72.0298 14.214 71.9147 14.2853 71.827 14.373C71.7394 14.4607 71.6462 14.5538 71.553 14.6579C71.4599 14.7621 71.3886 14.8552 71.3338 14.9594L71.1146 15.2772L70.9502 15.6225L70.8296 15.9677L70.72 16.3514C70.7036 16.4062 70.7036 16.4884 70.6871 16.5487C70.6707 16.6089 70.6707 16.6692 70.6543 16.7295L70.6378 17.1131C70.6356 17.2048 70.6411 17.2964 70.6543 17.3871C70.6543 17.5077 70.6707 17.6283 70.6981 17.7708C70.7255 17.9133 70.7419 18.0119 70.7748 18.1325L70.8954 18.4942C70.9283 18.5709 70.9721 18.6476 71.005 18.7134L67.5305 17.3652L65.7768 16.9104L64.8232 16.6911C63.9134 16.5106 62.9953 16.3752 62.0721 16.2856C61.1476 16.1837 60.2182 16.1325 59.2881 16.1322L57.3152 16.2089C56.3878 16.2755 55.4642 16.3871 54.5476 16.5432L53.868 16.6637L52.5089 16.9652L51.8294 17.146L51.1717 17.431L50.6785 17.6502L50.1853 17.8913C50.1414 17.9078 50.1086 17.9242 50.0757 17.9352L49.6044 18.1763C49.4948 18.2202 49.3852 18.2859 49.3029 18.3298C49.2591 18.3626 49.1933 18.3846 49.1659 18.4065L48.7714 18.6257C48.6343 18.7024 48.5138 18.7791 48.4097 18.8449L48.1082 19.0641L47.7794 19.3053L47.5218 19.5245C47.3574 19.645 47.2807 19.7218 47.204 19.782L46.8752 20.0999L46.5738 20.3849L46.3162 20.6589C46.2833 20.6918 46.2395 20.7137 46.2066 20.7521C46.1298 20.8452 46.0422 20.9329 45.949 21.0261L45.5435 21.4645L44.7214 22.2482C44.4542 22.4866 44.1723 22.708 43.8774 22.9113L42.9677 23.4867C42.6588 23.6565 42.3404 23.8084 42.0141 23.9416C41.6963 24.0786 41.3565 24.1992 41.0277 24.3033C40.392 24.4403 39.7453 24.6979 39.1808 24.7417C39.0602 24.7417 38.9232 24.7746 38.7972 24.7856L38.4136 24.8787L38.0519 25.0157C37.9313 25.0596 37.8107 25.1253 37.6902 25.1802C37.5696 25.235 37.4709 25.3172 37.3613 25.3994C37.2541 25.477 37.1533 25.5631 37.0599 25.6569C36.9503 25.7337 36.8407 25.8378 36.7585 25.931L36.5009 26.2324C36.4242 26.3529 36.3365 26.4516 36.2817 26.5776C36.2269 26.7037 36.1283 26.7968 36.0625 26.9229L35.8981 27.3175L35.7611 27.7121L35.6844 28.0738C35.6405 28.2546 35.6405 28.4355 35.6296 28.5286C35.6186 28.6218 35.5967 28.7259 35.5967 28.83C35.5967 28.8848 35.5967 28.967 35.6131 29.0273C35.6296 29.1369 35.646 29.2246 35.6679 29.3123L35.7775 29.5863C35.8214 29.6959 35.8871 29.7836 35.9419 29.8713L36.1392 30.1453L36.3968 30.3864C36.49 30.4796 36.5777 30.5509 36.6818 30.6276C37.0435 30.9454 37.1366 31.0496 37.6025 31.2852C37.6792 31.3291 37.7559 31.3619 37.8436 31.4058C37.9203 31.625 37.9532 31.7346 37.9806 31.8607C38.008 31.9867 38.0573 32.1182 38.1012 32.2224L38.2218 32.4964L38.441 32.9019L38.6602 33.2198L38.9178 33.5048C39.0109 33.5979 39.0986 33.6692 39.2027 33.7623L39.5041 33.9815C39.6101 34.0562 39.7219 34.1222 39.8384 34.1788C39.9481 34.2336 40.0577 34.2994 40.1837 34.3432C40.2769 34.3871 40.381 34.42 40.4851 34.4528C40.5892 34.4857 40.6824 34.5076 40.7427 34.5296C40.6989 35.3516 40.6879 36.1737 40.7975 36.3929C40.9345 36.6943 41.5976 35.7736 42.2662 34.7159C42.1731 35.812 42.1128 36.9848 42.2662 37.3465C42.4197 37.7082 43.3404 36.5463 44.1295 35.242C54.849 32.7649 64.6259 40.1743 65.6672 50.6307C65.4699 48.9976 63.4586 48.0933 62.5434 48.318C62.0885 49.436 61.3213 50.8719 60.0772 51.7706C60.1848 50.7605 60.133 49.7396 59.9238 48.7455C59.595 50.1375 58.9373 51.4309 58.0495 52.5543C57.3571 52.6014 56.6638 52.477 56.031 52.1922C55.3982 51.9073 54.8454 51.4707 54.4216 50.9212C54.3668 50.8774 54.3448 50.7842 54.301 50.7239L54.1421 50.3512C54.0982 50.2416 54.0653 50.132 54.0489 50.0334C54.0325 49.9347 54.0325 49.8142 54.0325 49.7046V49.4854C54.0489 49.3757 54.0763 49.2661 54.1092 49.1675L54.2188 48.8496C54.2736 48.74 54.3284 48.6304 54.3996 48.5318C54.6572 47.8084 54.6572 47.2165 54.1804 46.8712C54.0873 46.8164 53.9996 46.7616 53.8955 46.7178C53.8406 46.7014 53.7584 46.6739 53.6982 46.663L53.5776 46.6191L53.2597 46.5424C53.1564 46.513 53.0494 46.4983 52.9419 46.4986C52.8313 46.48 52.7196 46.469 52.6076 46.4657C52.5309 46.4657 52.4541 46.4821 52.3884 46.4821C52.2678 46.4821 52.1692 46.4986 52.0595 46.526L51.7417 46.5808L51.4238 46.6904L51.1224 46.8274L50.8374 46.9808C47.3136 49.2826 49.4126 54.6533 51.8239 56.2207C50.9142 56.3851 49.9935 56.5824 49.7414 56.7797C50.3606 57.2016 51.0402 57.5359 51.7526 57.8757L54.2024 58.5991C55.453 58.8673 56.7345 58.9632 58.0112 58.8841C64.7081 58.4128 70.1994 53.3216 71.1968 46.6082L71.29 47.0028L71.427 47.8467C71.4599 48.0002 71.4708 48.1317 71.4818 48.2523L71.5147 48.7071L71.5475 49.2004V49.4415C71.5475 49.5182 71.564 49.6059 71.564 49.6826C71.564 49.7594 71.5475 49.8635 71.5475 49.9567V50.1759C71.5475 50.2855 71.5311 50.3732 71.5311 50.4773C71.5311 50.5321 71.5311 50.5979 71.5147 50.6746L71.4982 51.0034C71.4818 51.0472 71.4818 51.0966 71.4818 51.1404L71.4379 51.4857C71.4379 51.5295 71.4379 51.5788 71.4215 51.6227L71.3667 52.0611V52.0885L71.2735 52.5105L71.1804 52.9653L70.9392 53.897L70.7858 54.3793L70.457 55.2561L70.2761 55.6945L70.0569 56.1165C70.0405 56.1604 70.024 56.1933 70.0131 56.2261C69.0054 58.2445 67.5396 59.9992 65.7329 61.3502C65.6124 61.427 65.4918 61.5146 65.3712 61.6078C65.3383 61.6407 65.2945 61.6517 65.2616 61.6845L64.9328 61.9037L64.9766 61.9969H64.9931L65.6288 61.9037H65.6452L66.8235 61.6845C66.9331 61.6681 67.0427 61.6407 67.1523 61.6078L67.3715 61.564L67.6894 61.5092L67.9634 61.4324C69.4615 61.0671 70.9277 60.5814 72.3477 59.9802C69.9187 63.2901 66.6883 65.9283 62.9599 67.6471C64.7055 67.5315 66.4341 67.2321 68.1169 66.7538C74.211 64.9563 79.3351 60.857 82.404 55.3383C81.7848 58.8293 80.3928 62.1558 78.3377 65.0604C79.8064 64.0904 81.1491 62.9779 82.3767 61.7065C85.7635 58.1662 87.9885 53.6778 88.7338 48.8551C89.249 51.2445 89.3915 53.7107 89.1722 56.1439C100.089 40.9196 90.082 25.1363 85.8841 20.9767C85.8292 21.0864 85.8073 21.2617 85.7964 21.4481L85.6429 22.4619L85.3853 23.4593L85.0236 24.4293L84.5688 25.35L84.0207 26.2105L83.4015 27.0325C83.1823 27.3065 82.9302 27.5476 82.689 27.7888L82.2506 28.1724L81.9053 28.4738C81.6363 28.6881 81.3545 28.8858 81.0614 29.0657L80.1681 29.5808L79.2145 30.0028C78.8928 30.1246 78.5655 30.2307 78.2335 30.3207L77.2197 30.5399C76.8744 30.5947 76.5237 30.6331 76.1894 30.6605L75.466 30.6933C75.1207 30.6933 74.77 30.6605 74.4357 30.6385C74.0892 30.6129 73.745 30.5635 73.4054 30.4906C73.0601 30.4358 72.7258 30.3371 72.3915 30.233H72.3751L73.3725 30.1124L74.3864 29.8932L75.3728 29.5754C75.7016 29.4548 76.0304 29.3013 76.3264 29.1534C76.6376 29.0021 76.9412 28.8357 77.2361 28.6547L78.0801 28.1066C78.3515 27.8964 78.6096 27.6694 78.8528 27.4271C79.1055 27.1956 79.3434 26.9485 79.5652 26.6872L80.201 25.8652C80.2338 25.8213 80.2558 25.7556 80.2941 25.7117L80.7326 24.9883L81.1874 24.0676L81.5491 23.0976C81.6587 22.7798 81.73 22.44 81.8067 22.1112L81.9601 21.0973L82.015 20.067L81.9875 19.3436L81.867 18.3298L81.6478 17.3159L81.3189 16.3459C81.1984 16.028 81.0449 15.7102 80.897 15.4142L80.3818 14.5209L79.8338 13.6879L79.1378 12.9207L78.7432 12.5371L76.6442 11.0574C76.5346 11.0026 76.4469 10.9478 76.3428 10.9039C75.8496 10.5861 75.3728 10.4217 74.907 10.2682L74.8796 10.2024Z" fill="#EA2845"/>
<path d="M105.142 48.7399C105.492 48.573 105.862 48.4497 106.243 48.3727C107.093 48.2357 107.575 48.1206 107.712 48.0274C107.942 47.8904 108.095 47.6986 108.172 47.5232C108.265 47.1944 108.309 46.5368 108.309 45.4791V43.4788L108.331 41.8456L108.26 39.4069V37.9656C108.26 37.001 108.189 36.1954 108.03 35.5981C107.986 35.3679 107.778 35.1377 107.454 34.9075C107.016 34.5787 106.358 34.2883 105.273 33.9869L105.251 32.8908L105.777 32.7812C105.942 32.7593 106.561 32.5949 107.641 32.3208L109.274 31.6796L109.657 31.4714C109.853 31.3045 110.06 31.1507 110.277 31.011C110.896 30.523 111.452 29.9597 111.932 29.3341L113.148 29.2409L113.105 31.8386C113.083 32.0907 113.083 32.2989 113.083 32.4578L113.105 33.5155C114.392 32.4195 115.543 31.6522 116.601 31.2138C117.828 30.672 119.151 30.3831 120.492 30.3644C121.842 30.3372 123.17 30.713 124.306 31.444C125.38 32.1564 126.115 32.9785 126.498 33.9101C126.882 34.8418 127.003 36.7599 127.003 39.5877L126.909 47.1287C126.904 47.4295 126.968 47.7276 127.096 48C127.503 48.1863 127.938 48.303 128.384 48.3453L129.513 48.5535C129.656 48.7709 129.729 49.0275 129.721 49.2879L129.699 50.0442L125.172 49.7154L123.84 49.7592H122.783L119.725 49.9894H118.941C118.919 49.7811 118.919 49.6441 118.919 49.529L118.963 48.6303C119.171 48.5864 119.719 48.5207 120.574 48.4001C120.804 48.3782 121.056 48.3069 121.358 48.2357C121.659 48.1261 121.84 47.9836 121.884 47.8685C121.994 47.5945 122.07 47.1122 122.07 46.3724L122.026 43.3856L122.048 40.7167C122.048 37.4504 121.862 35.4282 121.5 34.65C120.952 33.4772 120.032 32.8963 118.859 32.8963C117.931 32.918 117.019 33.1464 116.19 33.5649C115.136 34.0806 114.167 34.7552 113.318 35.5652L113.274 35.9488L113.318 37.3956L113.296 38.9301L113.389 42.6293L113.346 43.2047C113.346 45.7092 113.439 47.1341 113.647 47.4575C113.855 47.7808 114.612 48.1261 115.949 48.5152L116.02 49.0906C116.02 49.2769 115.949 49.5509 115.856 49.9401L114.639 49.962C114.131 49.9464 113.624 49.9007 113.121 49.825L110.589 49.803L105.257 49.9675C105.193 49.8148 105.161 49.6506 105.164 49.4852L105.185 48.7508L105.142 48.7399ZM132.291 37.7464C132.702 36.4311 133.047 35.5652 133.371 35.1487C134.22 33.8882 135.141 32.9566 136.111 32.1893C137.081 31.4221 137.974 31.0165 138.752 30.7864C139.556 30.5271 140.391 30.3795 141.235 30.3479C142.41 30.316 143.585 30.432 144.731 30.6932C145.535 30.8628 146.299 31.1826 146.984 31.6358C147.74 32.1585 148.434 32.7673 149.05 33.4498C149.591 34.1009 150.019 34.8382 150.316 35.6309C150.683 36.5923 150.877 37.6107 150.891 38.6396L148.316 38.5958C146.76 38.5601 145.205 38.4906 143.652 38.3875L141.81 38.2944L139.328 38.3163H137.327L137.284 38.8643C137.284 39.6864 137.393 40.5413 137.585 41.462C137.777 42.3827 138.089 43.139 138.484 43.8295C138.874 44.497 139.381 45.0891 139.98 45.5777C140.528 46.0819 141.197 46.4272 141.821 46.6573L143.153 47.0958L145.542 46.9862C146.201 46.8516 146.847 46.6591 147.472 46.4107C148.192 46.0663 148.877 45.6514 149.516 45.1722L150.919 46.2682C149.565 47.737 148.135 48.844 146.688 49.5564C145.241 50.2689 143.608 50.5429 141.756 50.5429C140.539 50.5429 139.547 50.4497 138.769 50.2141C137.776 49.9549 136.835 49.5287 135.985 48.9536C135.153 48.3616 134.414 47.6486 133.793 46.8382C133.135 46.0161 132.735 45.1119 132.439 44.2186C132.072 43.0458 131.864 42.1032 131.864 41.4127C131.852 40.1936 131.962 38.9764 132.192 37.7792L132.291 37.7464ZM145.718 36.7599C145.696 35.883 145.532 35.0829 145.214 34.2773C144.896 33.4717 144.392 32.8963 143.696 32.4688C143.095 32.0499 142.384 31.8173 141.651 31.8002C140.555 31.8002 139.695 32.2606 138.846 33.1538C137.996 34.0471 137.558 35.346 137.443 36.8531L142.704 36.875L144.129 36.8037L145.093 36.7325L145.712 36.7544L145.718 36.7599ZM154.486 43.4568C154.82 43.3812 155.159 43.3353 155.5 43.3198L155.982 43.3418L156.191 43.5719L157.846 46.2408C158.372 46.8601 158.903 47.3698 159.49 47.7589C159.835 47.9891 160.389 48.2631 161.145 48.5152C161.669 48.7011 162.222 48.7938 162.778 48.7892C163.693 48.8127 164.582 48.483 165.261 47.8685C165.951 47.2273 166.357 46.5532 166.357 45.8243C166.357 45.3421 166.22 44.9256 165.973 44.5858C165.726 44.246 165.189 43.8953 164.411 43.4897C164.028 43.3253 163.058 43.0513 161.49 42.6677L158.816 41.9114C158.109 41.6475 157.455 41.2575 156.887 40.7605C156.347 40.2955 155.909 39.7247 155.599 39.0835C155.215 38.2067 155.051 37.4504 155.051 36.8914C155.051 35.7186 155.237 34.776 155.555 34.0197C155.904 33.2727 156.396 32.6007 157.002 32.0413C157.44 31.6029 158.098 31.2193 159.002 30.8686C159.926 30.5159 160.907 30.3375 161.896 30.3424C163.19 30.3251 164.483 30.426 165.759 30.6439C166.733 30.8082 167.678 31.1109 168.565 31.5426C168.675 31.8879 168.795 32.7154 168.976 33.9814L169.228 36.2557C169.228 36.3653 169.206 36.4859 169.157 36.601C168.829 36.7071 168.488 36.7698 168.143 36.7873C168.006 36.7873 167.776 36.7654 167.475 36.7435C167.278 36.43 167.095 36.1082 166.927 35.7789C166.192 34.3979 165.431 33.4333 164.652 32.8853C163.874 32.3373 162.997 32.0359 161.912 32.0359C160.827 32.0359 159.956 32.3647 159.243 32.9566C158.982 33.1847 158.777 33.4688 158.641 33.7876C158.505 34.1065 158.443 34.4518 158.46 34.7979C158.46 35.3021 158.734 35.8118 159.282 36.3324C159.83 36.8531 160.75 37.275 162.088 37.5491C164.115 37.9875 165.606 38.4478 166.549 38.8808C167.93 39.522 168.916 40.3057 169.47 41.1825C170.023 42.0594 170.319 43.0677 170.319 44.2186C170.319 46.0107 169.628 47.5068 168.275 48.7015C166.921 49.8962 164.987 50.4716 162.389 50.4716C161.506 50.4298 160.625 50.353 159.747 50.2415C159.106 50.1702 158.345 50.0113 157.473 49.7811C156.897 49.5831 156.331 49.36 155.774 49.1125C155.631 49.0294 155.506 48.9174 155.407 48.7837C155.363 48.6467 155.243 48 155.106 46.8546L154.722 43.4733L154.486 43.4568ZM173.426 32.4195C175.235 31.6632 176.55 30.9014 177.356 30.2274C178.161 29.5533 179.033 28.2709 179.953 26.6104H181.269C181.407 27.0181 181.477 27.4458 181.477 27.8763L181.455 29.7615L181.384 31.1152L181.406 31.6413L181.932 31.6632L184.091 31.57L185.817 31.5262C185.909 31.8868 185.962 32.256 185.976 32.6277C185.976 32.9949 185.905 33.4114 185.79 33.8663C185.409 33.9231 185.024 33.9542 184.639 33.9595C184.529 33.9595 184.272 33.9595 183.905 33.9156H182.71L182.293 33.8937L181.197 33.9375L181.154 42.706L181.247 45.9011C181.344 46.3407 181.533 46.7551 181.8 47.1177C182.168 47.2873 182.568 47.3734 182.973 47.3698C183.384 47.3698 183.685 47.3259 183.894 47.2602C184.102 47.1944 184.442 46.9588 184.908 46.5916C185.001 46.4984 185.16 46.4052 185.346 46.2628C185.69 46.5114 185.999 46.8044 186.267 47.1341L186.36 47.4081C185.794 48.2746 184.999 48.9671 184.064 49.4085C183.099 49.8907 182.063 50.1209 180.962 50.1209C179.515 50.1209 178.364 49.6606 177.465 48.7673C176.567 47.874 176.134 46.4436 176.134 44.5365L176.227 40.492V33.9101L175.514 33.8882L173.837 33.9101L173.536 33.8389C173.451 33.7287 173.403 33.5944 173.399 33.4553L173.443 32.3592L173.426 32.4195Z" fill="#EA2845"/>
</svg>
