<svg width="222" height="87" viewBox="0 0 222 87" fill="none" xmlns="http://www.w3.org/2000/svg">
<rect y="5" width="222" height="78" rx="2" fill="black"/>
<path fill-rule="evenodd" clip-rule="evenodd" d="M70.0733 14.342C69.6514 14.342 69.2513 14.4352 68.8951 14.5613C69.6623 15.0764 70.0898 15.756 70.3035 16.5342C70.32 16.6438 70.3474 16.715 70.3583 16.8191C70.3693 16.9233 70.3912 17 70.3912 17.0932C70.446 18.4249 70.0459 18.5893 69.7555 19.3785C69.5495 19.8552 69.4614 20.3745 69.4986 20.8925C69.5358 21.4105 69.6972 21.9119 69.9692 22.3543C70.0176 22.4717 70.0782 22.5838 70.1501 22.6886C69.5746 18.8633 72.7642 18.2879 73.356 17.0986C73.3999 16.0026 72.534 15.3614 71.8599 14.8736C71.3251 14.5364 70.7056 14.3578 70.0733 14.3585V14.342ZM74.8796 15.2024C74.8248 15.5477 74.8631 15.46 74.8467 15.6409L74.8138 16.0355L74.7042 16.3972C74.6708 16.5199 74.6306 16.6406 74.5836 16.7589L74.4192 17.1041C74.3754 17.1589 74.3425 17.2247 74.2987 17.285L74.2055 17.422L73.9863 17.7234C73.8931 17.8166 73.8219 17.9207 73.7123 17.9974C73.6027 18.0741 73.5314 18.1783 73.4273 18.255C73.1094 18.4961 72.7477 18.677 72.4134 18.9126C72.3038 18.9893 72.1942 19.0496 72.112 19.1318C72.0298 19.214 71.9147 19.2853 71.827 19.373C71.7394 19.4607 71.6462 19.5538 71.553 19.6579C71.4599 19.7621 71.3886 19.8552 71.3338 19.9594L71.1146 20.2772L70.9502 20.6225L70.8296 20.9677L70.72 21.3514C70.7036 21.4062 70.7036 21.4884 70.6871 21.5487C70.6707 21.6089 70.6707 21.6692 70.6543 21.7295L70.6378 22.1131C70.6356 22.2048 70.6411 22.2964 70.6543 22.3871C70.6543 22.5077 70.6707 22.6283 70.6981 22.7708C70.7255 22.9133 70.7419 23.0119 70.7748 23.1325L70.8954 23.4942C70.9283 23.5709 70.9721 23.6476 71.005 23.7134L67.5305 22.3652L65.7768 21.9104L64.8232 21.6911C63.9134 21.5106 62.9953 21.3752 62.0721 21.2856C61.1476 21.1837 60.2182 21.1325 59.2881 21.1322L57.3152 21.2089C56.3878 21.2755 55.4642 21.3871 54.5476 21.5432L53.868 21.6637L52.5089 21.9652L51.8294 22.146L51.1717 22.431L50.6785 22.6502L50.1853 22.8913C50.1414 22.9078 50.1086 22.9242 50.0757 22.9352L49.6044 23.1763C49.4948 23.2202 49.3852 23.2859 49.3029 23.3298C49.2591 23.3626 49.1933 23.3846 49.1659 23.4065L48.7714 23.6257C48.6343 23.7024 48.5138 23.7791 48.4097 23.8449L48.1082 24.0641L47.7794 24.3053L47.5218 24.5245C47.3574 24.645 47.2807 24.7218 47.204 24.782L46.8752 25.0999L46.5738 25.3849L46.3162 25.6589C46.2833 25.6918 46.2395 25.7137 46.2066 25.7521C46.1298 25.8452 46.0422 25.9329 45.949 26.0261L45.5435 26.4645L44.7214 27.2482C44.4542 27.4866 44.1723 27.708 43.8774 27.9113L42.9677 28.4867C42.6588 28.6565 42.3404 28.8084 42.0141 28.9416C41.6963 29.0786 41.3565 29.1992 41.0277 29.3033C40.392 29.4403 39.7453 29.6979 39.1808 29.7417C39.0602 29.7417 38.9232 29.7746 38.7972 29.7856L38.4136 29.8787L38.0519 30.0157C37.9313 30.0596 37.8107 30.1253 37.6902 30.1802C37.5696 30.235 37.4709 30.3172 37.3613 30.3994C37.2541 30.477 37.1533 30.5631 37.0599 30.6569C36.9503 30.7337 36.8407 30.8378 36.7585 30.931L36.5009 31.2324C36.4242 31.3529 36.3365 31.4516 36.2817 31.5776C36.2269 31.7037 36.1283 31.7968 36.0625 31.9229L35.8981 32.3175L35.7611 32.7121L35.6844 33.0738C35.6405 33.2546 35.6405 33.4355 35.6296 33.5286C35.6186 33.6218 35.5967 33.7259 35.5967 33.83C35.5967 33.8848 35.5967 33.967 35.6131 34.0273C35.6296 34.1369 35.646 34.2246 35.6679 34.3123L35.7775 34.5863C35.8214 34.6959 35.8871 34.7836 35.9419 34.8713L36.1392 35.1453L36.3968 35.3864C36.49 35.4796 36.5777 35.5509 36.6818 35.6276C37.0435 35.9454 37.1366 36.0496 37.6025 36.2852C37.6792 36.3291 37.7559 36.3619 37.8436 36.4058C37.9203 36.625 37.9532 36.7346 37.9806 36.8607C38.008 36.9867 38.0573 37.1182 38.1012 37.2224L38.2218 37.4964L38.441 37.9019L38.6602 38.2198L38.9178 38.5048C39.0109 38.5979 39.0986 38.6692 39.2027 38.7623L39.5041 38.9815C39.6101 39.0562 39.7219 39.1222 39.8384 39.1788C39.9481 39.2336 40.0577 39.2994 40.1837 39.3432C40.2769 39.3871 40.381 39.42 40.4851 39.4528C40.5892 39.4857 40.6824 39.5076 40.7427 39.5296C40.6989 40.3516 40.6879 41.1737 40.7975 41.3929C40.9345 41.6943 41.5976 40.7736 42.2662 39.7159C42.1731 40.812 42.1128 41.9848 42.2662 42.3465C42.4197 42.7082 43.3404 41.5463 44.1295 40.242C54.849 37.7649 64.6259 45.1743 65.6672 55.6307C65.4699 53.9976 63.4586 53.0933 62.5434 53.318C62.0885 54.436 61.3213 55.8719 60.0772 56.7706C60.1848 55.7605 60.133 54.7396 59.9238 53.7455C59.595 55.1375 58.9373 56.4309 58.0495 57.5543C57.3571 57.6014 56.6638 57.477 56.031 57.1922C55.3982 56.9073 54.8454 56.4707 54.4216 55.9212C54.3668 55.8774 54.3448 55.7842 54.301 55.7239L54.1421 55.3512C54.0982 55.2416 54.0653 55.132 54.0489 55.0334C54.0325 54.9347 54.0325 54.8142 54.0325 54.7046V54.4854C54.0489 54.3757 54.0763 54.2661 54.1092 54.1675L54.2188 53.8496C54.2736 53.74 54.3284 53.6304 54.3996 53.5318C54.6572 52.8084 54.6572 52.2165 54.1804 51.8712C54.0873 51.8164 53.9996 51.7616 53.8955 51.7178C53.8406 51.7014 53.7584 51.6739 53.6982 51.663L53.5776 51.6191L53.2597 51.5424C53.1564 51.513 53.0494 51.4983 52.9419 51.4986C52.8313 51.48 52.7196 51.469 52.6076 51.4657C52.5309 51.4657 52.4541 51.4821 52.3884 51.4821C52.2678 51.4821 52.1692 51.4986 52.0595 51.526L51.7417 51.5808L51.4238 51.6904L51.1224 51.8274L50.8374 51.9808C47.3136 54.2826 49.4126 59.6533 51.8239 61.2207C50.9142 61.3851 49.9935 61.5824 49.7414 61.7797C50.3606 62.2016 51.0402 62.5359 51.7526 62.8757L54.2024 63.5991C55.453 63.8673 56.7345 63.9632 58.0112 63.8841C64.7081 63.4128 70.1994 58.3216 71.1968 51.6082L71.29 52.0028L71.427 52.8467C71.4599 53.0002 71.4708 53.1317 71.4818 53.2523L71.5147 53.7071L71.5475 54.2004V54.4415C71.5475 54.5182 71.564 54.6059 71.564 54.6826C71.564 54.7594 71.5475 54.8635 71.5475 54.9567V55.1759C71.5475 55.2855 71.5311 55.3732 71.5311 55.4773C71.5311 55.5321 71.5311 55.5979 71.5147 55.6746L71.4982 56.0034C71.4818 56.0472 71.4818 56.0966 71.4818 56.1404L71.4379 56.4857C71.4379 56.5295 71.4379 56.5788 71.4215 56.6227L71.3667 57.0611V57.0885L71.2735 57.5105L71.1804 57.9653L70.9392 58.897L70.7858 59.3793L70.457 60.2561L70.2761 60.6945L70.0569 61.1165C70.0405 61.1604 70.024 61.1933 70.0131 61.2261C69.0054 63.2445 67.5396 64.9992 65.7329 66.3502C65.6124 66.427 65.4918 66.5146 65.3712 66.6078C65.3383 66.6407 65.2945 66.6517 65.2616 66.6845L64.9328 66.9037L64.9766 66.9969H64.9931L65.6288 66.9037H65.6452L66.8235 66.6845C66.9331 66.6681 67.0427 66.6407 67.1523 66.6078L67.3715 66.564L67.6894 66.5092L67.9634 66.4324C69.4615 66.0671 70.9277 65.5814 72.3477 64.9802C69.9187 68.2901 66.6883 70.9283 62.9599 72.6471C64.7055 72.5315 66.4341 72.2321 68.1169 71.7538C74.211 69.9563 79.3351 65.857 82.404 60.3383C81.7848 63.8293 80.3928 67.1558 78.3377 70.0604C79.8064 69.0904 81.1491 67.9779 82.3767 66.7065C85.7635 63.1662 87.9885 58.6778 88.7338 53.8551C89.249 56.2445 89.3915 58.7107 89.1722 61.1439C100.089 45.9196 90.082 30.1363 85.8841 25.9767C85.8292 26.0864 85.8073 26.2617 85.7964 26.4481L85.6429 27.4619L85.3853 28.4593L85.0236 29.4293L84.5688 30.35L84.0207 31.2105L83.4015 32.0325C83.1823 32.3065 82.9302 32.5476 82.689 32.7888L82.2506 33.1724L81.9053 33.4738C81.6363 33.6881 81.3545 33.8858 81.0614 34.0657L80.1681 34.5808L79.2145 35.0028C78.8928 35.1246 78.5655 35.2307 78.2335 35.3207L77.2197 35.5399C76.8744 35.5947 76.5237 35.6331 76.1894 35.6605L75.466 35.6933C75.1207 35.6933 74.77 35.6605 74.4357 35.6385C74.0892 35.6129 73.745 35.5635 73.4054 35.4906C73.0601 35.4358 72.7258 35.3371 72.3915 35.233H72.3751L73.3725 35.1124L74.3864 34.8932L75.3728 34.5754C75.7016 34.4548 76.0304 34.3013 76.3264 34.1534C76.6376 34.0021 76.9412 33.8357 77.2361 33.6547L78.0801 33.1066C78.3515 32.8964 78.6096 32.6694 78.8528 32.4271C79.1055 32.1956 79.3434 31.9485 79.5652 31.6872L80.201 30.8652C80.2338 30.8213 80.2558 30.7556 80.2941 30.7117L80.7326 29.9883L81.1874 29.0676L81.5491 28.0976C81.6587 27.7798 81.73 27.44 81.8067 27.1112L81.9601 26.0973L82.015 25.067L81.9875 24.3436L81.867 23.3298L81.6478 22.3159L81.3189 21.3459C81.1984 21.028 81.0449 20.7102 80.897 20.4142L80.3818 19.5209L79.8338 18.6879L79.1378 17.9207L78.7432 17.5371L76.6442 16.0574C76.5346 16.0026 76.4469 15.9478 76.3428 15.9039C75.8496 15.5861 75.3728 15.4217 74.907 15.2682L74.8796 15.2024Z" fill="#EA2845"/>
<path d="M105.142 53.7399C105.492 53.573 105.862 53.4497 106.243 53.3727C107.093 53.2357 107.575 53.1206 107.712 53.0274C107.942 52.8904 108.095 52.6986 108.172 52.5232C108.265 52.1944 108.309 51.5368 108.309 50.4791V48.4788L108.331 46.8456L108.26 44.4069V42.9656C108.26 42.001 108.189 41.1954 108.03 40.5981C107.986 40.3679 107.778 40.1377 107.454 39.9075C107.016 39.5787 106.358 39.2883 105.273 38.9869L105.251 37.8908L105.777 37.7812C105.942 37.7593 106.561 37.5949 107.641 37.3208L109.274 36.6796L109.657 36.4714C109.853 36.3045 110.06 36.1507 110.277 36.011C110.896 35.523 111.452 34.9597 111.932 34.3341L113.148 34.2409L113.105 36.8386C113.083 37.0907 113.083 37.2989 113.083 37.4578L113.105 38.5155C114.392 37.4195 115.543 36.6522 116.601 36.2138C117.828 35.672 119.151 35.3831 120.492 35.3644C121.842 35.3372 123.17 35.713 124.306 36.444C125.38 37.1564 126.115 37.9785 126.498 38.9101C126.882 39.8418 127.003 41.7599 127.003 44.5877L126.909 52.1287C126.904 52.4295 126.968 52.7276 127.096 53C127.503 53.1863 127.938 53.303 128.384 53.3453L129.513 53.5535C129.656 53.7709 129.729 54.0275 129.721 54.2879L129.699 55.0442L125.172 54.7154L123.84 54.7592H122.783L119.725 54.9894H118.941C118.919 54.7811 118.919 54.6441 118.919 54.529L118.963 53.6303C119.171 53.5864 119.719 53.5207 120.574 53.4001C120.804 53.3782 121.056 53.3069 121.358 53.2357C121.659 53.1261 121.84 52.9836 121.884 52.8685C121.994 52.5945 122.07 52.1122 122.07 51.3724L122.026 48.3856L122.048 45.7167C122.048 42.4504 121.862 40.4282 121.5 39.65C120.952 38.4772 120.032 37.8963 118.859 37.8963C117.931 37.918 117.019 38.1464 116.19 38.5649C115.136 39.0806 114.167 39.7552 113.318 40.5652L113.274 40.9488L113.318 42.3956L113.296 43.9301L113.389 47.6293L113.346 48.2047C113.346 50.7092 113.439 52.1341 113.647 52.4575C113.855 52.7808 114.612 53.1261 115.949 53.5152L116.02 54.0906C116.02 54.2769 115.949 54.5509 115.856 54.9401L114.639 54.962C114.131 54.9464 113.624 54.9007 113.121 54.825L110.589 54.803L105.257 54.9675C105.193 54.8148 105.161 54.6506 105.164 54.4852L105.185 53.7508L105.142 53.7399ZM132.291 42.7464C132.702 41.4311 133.047 40.5652 133.371 40.1487C134.22 38.8882 135.141 37.9566 136.111 37.1893C137.081 36.4221 137.974 36.0165 138.752 35.7864C139.556 35.5271 140.391 35.3795 141.235 35.3479C142.41 35.316 143.585 35.432 144.731 35.6932C145.535 35.8628 146.299 36.1826 146.984 36.6358C147.74 37.1585 148.434 37.7673 149.05 38.4498C149.591 39.1009 150.019 39.8382 150.316 40.6309C150.683 41.5923 150.877 42.6107 150.891 43.6396L148.316 43.5958C146.76 43.5601 145.205 43.4906 143.652 43.3875L141.81 43.2944L139.328 43.3163H137.327L137.284 43.8643C137.284 44.6864 137.393 45.5413 137.585 46.462C137.777 47.3827 138.089 48.139 138.484 48.8295C138.874 49.497 139.381 50.0891 139.98 50.5777C140.528 51.0819 141.197 51.4272 141.821 51.6573L143.153 52.0958L145.542 51.9862C146.201 51.8516 146.847 51.6591 147.472 51.4107C148.192 51.0663 148.877 50.6514 149.516 50.1722L150.919 51.2682C149.565 52.737 148.135 53.844 146.688 54.5564C145.241 55.2689 143.608 55.5429 141.756 55.5429C140.539 55.5429 139.547 55.4497 138.769 55.2141C137.776 54.9549 136.835 54.5287 135.985 53.9536C135.153 53.3616 134.414 52.6486 133.793 51.8382C133.135 51.0161 132.735 50.1119 132.439 49.2186C132.072 48.0458 131.864 47.1032 131.864 46.4127C131.852 45.1936 131.962 43.9764 132.192 42.7792L132.291 42.7464ZM145.718 41.7599C145.696 40.883 145.532 40.0829 145.214 39.2773C144.896 38.4717 144.392 37.8963 143.696 37.4688C143.095 37.0499 142.384 36.8173 141.651 36.8002C140.555 36.8002 139.695 37.2606 138.846 38.1538C137.996 39.0471 137.558 40.346 137.443 41.8531L142.704 41.875L144.129 41.8037L145.093 41.7325L145.712 41.7544L145.718 41.7599ZM154.486 48.4568C154.82 48.3812 155.159 48.3353 155.5 48.3198L155.982 48.3418L156.191 48.5719L157.846 51.2408C158.372 51.8601 158.903 52.3698 159.49 52.7589C159.835 52.9891 160.389 53.2631 161.145 53.5152C161.669 53.7011 162.222 53.7938 162.778 53.7892C163.693 53.8127 164.582 53.483 165.261 52.8685C165.951 52.2273 166.357 51.5532 166.357 50.8243C166.357 50.3421 166.22 49.9256 165.973 49.5858C165.726 49.246 165.189 48.8953 164.411 48.4897C164.028 48.3253 163.058 48.0513 161.49 47.6677L158.816 46.9114C158.109 46.6475 157.455 46.2575 156.887 45.7605C156.347 45.2955 155.909 44.7247 155.599 44.0835C155.215 43.2067 155.051 42.4504 155.051 41.8914C155.051 40.7186 155.237 39.776 155.555 39.0197C155.904 38.2727 156.396 37.6007 157.002 37.0413C157.44 36.6029 158.098 36.2193 159.002 35.8686C159.926 35.5159 160.907 35.3375 161.896 35.3424C163.19 35.3251 164.483 35.426 165.759 35.6439C166.733 35.8082 167.678 36.1109 168.565 36.5426C168.675 36.8879 168.795 37.7154 168.976 38.9814L169.228 41.2557C169.228 41.3653 169.206 41.4859 169.157 41.601C168.829 41.7071 168.488 41.7698 168.143 41.7873C168.006 41.7873 167.776 41.7654 167.475 41.7435C167.278 41.43 167.095 41.1082 166.927 40.7789C166.192 39.3979 165.431 38.4333 164.652 37.8853C163.874 37.3373 162.997 37.0359 161.912 37.0359C160.827 37.0359 159.956 37.3647 159.243 37.9566C158.982 38.1847 158.777 38.4688 158.641 38.7876C158.505 39.1065 158.443 39.4518 158.46 39.7979C158.46 40.3021 158.734 40.8118 159.282 41.3324C159.83 41.8531 160.75 42.275 162.088 42.5491C164.115 42.9875 165.606 43.4478 166.549 43.8808C167.93 44.522 168.916 45.3057 169.47 46.1825C170.023 47.0594 170.319 48.0677 170.319 49.2186C170.319 51.0107 169.628 52.5068 168.275 53.7015C166.921 54.8962 164.987 55.4716 162.389 55.4716C161.506 55.4298 160.625 55.353 159.747 55.2415C159.106 55.1702 158.345 55.0113 157.473 54.7811C156.897 54.5831 156.331 54.36 155.774 54.1125C155.631 54.0294 155.506 53.9174 155.407 53.7837C155.363 53.6467 155.243 53 155.106 51.8546L154.722 48.4733L154.486 48.4568ZM173.426 37.4195C175.235 36.6632 176.55 35.9014 177.356 35.2274C178.161 34.5533 179.033 33.2709 179.953 31.6104H181.269C181.407 32.0181 181.477 32.4458 181.477 32.8763L181.455 34.7615L181.384 36.1152L181.406 36.6413L181.932 36.6632L184.091 36.57L185.817 36.5262C185.909 36.8868 185.962 37.256 185.976 37.6277C185.976 37.9949 185.905 38.4114 185.79 38.8663C185.409 38.9231 185.024 38.9542 184.639 38.9595C184.529 38.9595 184.272 38.9595 183.905 38.9156H182.71L182.293 38.8937L181.197 38.9375L181.154 47.706L181.247 50.9011C181.344 51.3407 181.533 51.7551 181.8 52.1177C182.168 52.2873 182.568 52.3734 182.973 52.3698C183.384 52.3698 183.685 52.3259 183.894 52.2602C184.102 52.1944 184.442 51.9588 184.908 51.5916C185.001 51.4984 185.16 51.4052 185.346 51.2628C185.69 51.5114 185.999 51.8044 186.267 52.1341L186.36 52.4081C185.794 53.2746 184.999 53.9671 184.064 54.4085C183.099 54.8907 182.063 55.1209 180.962 55.1209C179.515 55.1209 178.364 54.6606 177.465 53.7673C176.567 52.874 176.134 51.4436 176.134 49.5365L176.227 45.492V38.9101L175.514 38.8882L173.837 38.9101L173.536 38.8389C173.451 38.7287 173.403 38.5944 173.399 38.4553L173.443 37.3592L173.426 37.4195Z" fill="#EA2845"/>
</svg>
